<svg xmlns="http://www.w3.org/2000/svg" width="158" height="80" viewBox="0 0 158 80">
  <g id="Footer_Logo" data-name="Footer Logo" transform="translate(-474 -965)">
    <g id="Rectangle_2" data-name="Rectangle 2" transform="translate(474 965)" fill="#fff" stroke="#707070" stroke-linecap="round" stroke-width="1">
      <rect width="158" height="80" stroke="none"/>
      <rect x="0.5" y="0.5" width="157" height="79" fill="none"/>
    </g>
    <path id="Path_2" data-name="Path 2" d="M7.07-3.066H20.547V0H3.3V-28.437H7.07ZM45.43-13.3a17.592,17.592,0,0,1-1.406,7.295A10.652,10.652,0,0,1,40.039-1.25,10.962,10.962,0,0,1,34.023.391a10.869,10.869,0,0,1-5.957-1.65,10.906,10.906,0,0,1-4.033-4.707,16.879,16.879,0,0,1-1.475-7.08V-15.1a17.382,17.382,0,0,1,1.426-7.246,10.868,10.868,0,0,1,4.033-4.814,10.822,10.822,0,0,1,5.967-1.67,11.024,11.024,0,0,1,6.025,1.65,10.632,10.632,0,0,1,4.014,4.785A17.677,17.677,0,0,1,45.43-15.1ZM41.7-15.137q0-5.059-2.031-7.764a6.7,6.7,0,0,0-5.684-2.705,6.628,6.628,0,0,0-5.6,2.705,12.489,12.489,0,0,0-2.1,7.51v2.09A12.769,12.769,0,0,0,28.35-5.6a6.656,6.656,0,0,0,5.674,2.8,6.629,6.629,0,0,0,5.625-2.646q1.992-2.646,2.051-7.588ZM72.051-3.73a8.663,8.663,0,0,1-4.033,3.1A16.291,16.291,0,0,1,61.992.391,11.685,11.685,0,0,1,55.82-1.24a10.865,10.865,0,0,1-4.17-4.639,16.021,16.021,0,0,1-1.514-6.973v-2.48q0-6.426,3-9.961a10.447,10.447,0,0,1,8.428-3.535,10.79,10.79,0,0,1,7.168,2.275,9.912,9.912,0,0,1,3.32,6.455H68.3q-1.055-5.645-6.719-5.645A6.64,6.64,0,0,0,55.869-23.1q-1.943,2.646-1.963,7.666v2.324A12.1,12.1,0,0,0,56.094-5.5a7.093,7.093,0,0,0,5.918,2.822A13.043,13.043,0,0,0,65.7-3.145,5.705,5.705,0,0,0,68.32-4.727v-6.387H61.738V-14.16H72.051Zm28.125-9.57A17.592,17.592,0,0,1,98.77-6.006,10.652,10.652,0,0,1,94.785-1.25,10.962,10.962,0,0,1,88.77.391a10.869,10.869,0,0,1-5.957-1.65,10.906,10.906,0,0,1-4.033-4.707,16.879,16.879,0,0,1-1.475-7.08V-15.1a17.382,17.382,0,0,1,1.426-7.246,10.868,10.868,0,0,1,4.033-4.814,10.822,10.822,0,0,1,5.967-1.67,11.024,11.024,0,0,1,6.025,1.65,10.632,10.632,0,0,1,4.014,4.785,17.677,17.677,0,0,1,1.406,7.295Zm-3.73-1.836q0-5.059-2.031-7.764a6.7,6.7,0,0,0-5.684-2.705,6.628,6.628,0,0,0-5.6,2.705,12.489,12.489,0,0,0-2.1,7.51v2.09A12.769,12.769,0,0,0,83.1-5.6a6.656,6.656,0,0,0,5.674,2.8,6.629,6.629,0,0,0,5.625-2.646q1.992-2.646,2.051-7.588Z" transform="translate(502 1019)" fill="#707070" stroke="#707070" stroke-linecap="round" stroke-width="1"/>
  </g>
</svg>
